<svg width="1920" height="1124" viewBox="0 0 1920 1124" fill="none" xmlns="http://www.w3.org/2000/svg">
<path d="M681.731 115.074C681.731 347.935 814.542 571.056 868.33 647.643C874.486 656.589 882.666 663.958 892.204 669.15C901.742 674.342 912.37 677.212 923.225 677.526H1263.22C1274.12 677.433 1284.83 674.658 1294.4 669.447C1303.98 664.235 1312.12 656.747 1318.11 647.643C1371.9 569.507 1504.71 346.385 1504.71 115.074H681.731Z" fill="#43A0D6"/>
<path d="M623.292 880.505C643.435 847.302 661.586 814.1 678.408 780.676C662.027 815.013 643.623 848.348 623.292 880.505V880.505Z" fill="#002C6A"/>
<path d="M718.26 700.767C708.299 720.689 698.339 742.381 688.378 762.303C698.339 742.381 707.857 722.46 718.26 700.767Z" fill="#002C6A"/>
<path d="M1012.2 116.624H893.339C889.133 153.368 882.492 192.547 874.302 233.497C868.99 259.395 859.472 308.977 834.902 394.197C822.506 436.918 774.473 573.048 764.291 593.413C762.521 591.642 744.37 561.981 736.18 547.372C716.749 513.171 699.379 477.839 684.162 441.566C682.17 436.697 668.889 401.502 666.676 395.304C660.921 379.367 651.624 351.034 647.418 339.081C624.402 266.736 609.044 192.175 601.599 116.624H415V209.812H495.129C506.223 270.448 522.364 330.051 543.383 387.999C577.799 486.849 626.737 580.026 688.589 664.466C691.688 668.893 705.412 686.601 710.724 691.25L718.693 700.768C708.732 720.689 698.771 742.382 688.811 762.303C685.49 768.944 682.17 774.035 678.85 780.675C660.478 814.099 642.106 848.851 623.734 880.504H732.195C754.33 843.982 778.679 807.237 798.601 769.829C858.064 653.738 908.747 533.355 950.226 409.692C979.378 313.993 1000.12 215.931 1012.2 116.624Z" fill="#002C6A"/>
<path d="M710.059 1007.12C710.059 1021.3 705.853 1035.17 697.973 1046.96C690.092 1058.75 678.891 1067.95 665.787 1073.38C652.682 1078.8 638.262 1080.22 624.35 1077.46C610.438 1074.69 597.66 1067.86 587.63 1057.83C577.6 1047.8 570.769 1035.02 568.002 1021.11C565.235 1007.2 566.655 992.776 572.083 979.672C577.511 966.567 586.704 955.366 598.497 947.486C610.291 939.605 624.157 935.399 638.342 935.399C657.326 935.515 675.501 943.109 688.925 956.533C702.35 969.958 709.943 988.132 710.059 1007.12V1007.12Z" fill="#002C6A"/>
<path d="M1358.18 1007.12C1358.18 1021.3 1353.97 1035.17 1346.09 1046.96C1338.21 1058.75 1327.01 1067.95 1313.9 1073.37C1300.8 1078.8 1286.38 1080.22 1272.47 1077.46C1258.56 1074.69 1245.78 1067.86 1235.75 1057.83C1225.72 1047.8 1218.89 1035.02 1216.12 1021.11C1213.35 1007.2 1214.77 992.776 1220.2 979.671C1225.63 966.567 1234.82 955.366 1246.61 947.486C1258.41 939.605 1272.27 935.399 1286.46 935.399C1295.9 935.31 1305.27 937.105 1314.01 940.678C1322.75 944.25 1330.69 949.53 1337.37 956.207C1344.05 962.884 1349.32 970.826 1352.9 979.567C1356.47 988.308 1358.26 997.674 1358.18 1007.12V1007.12Z" fill="#002C6A"/>
</svg>
